<mxfile host="app.diagrams.net" modified="2023-04-24T19:22:06.712Z" agent="Mozilla/5.0 (Windows NT 10.0; Win64; x64) AppleWebKit/537.36 (KHTML, like Gecko) Chrome/112.0.0.0 Safari/537.36" etag="gXiAh-oS0AZvYYeY9zwW" version="21.1.2" type="github">
  <diagram name="Σελίδα-1" id="6EKgJqdp-2R1DhyNNZnS">
    <mxGraphModel dx="1358" dy="723" grid="1" gridSize="10" guides="1" tooltips="1" connect="1" arrows="1" fold="1" page="1" pageScale="1" pageWidth="1654" pageHeight="1169" math="0" shadow="0">
      <root>
        <mxCell id="0" />
        <mxCell id="1" parent="0" />
        <mxCell id="oxwn6A90s46tCGuVFcYO-1" value="Parent" style="shape=umlActor;verticalLabelPosition=bottom;verticalAlign=top;html=1;outlineConnect=0;labelPosition=center;align=center;movable=1;resizable=1;rotatable=1;deletable=1;editable=1;locked=0;connectable=1;" parent="1" vertex="1">
          <mxGeometry x="30" y="40" width="30" height="60" as="geometry" />
        </mxCell>
        <mxCell id="oxwn6A90s46tCGuVFcYO-14" value="Αρχική Οθόνη Γονέα" style="shape=umlBoundary;whiteSpace=wrap;html=1;" parent="1" vertex="1">
          <mxGeometry x="210" y="60" width="100" height="80" as="geometry" />
        </mxCell>
        <mxCell id="oxwn6A90s46tCGuVFcYO-15" value="" style="endArrow=classic;html=1;rounded=0;entryX=-0.04;entryY=0.55;entryDx=0;entryDy=0;entryPerimeter=0;" parent="1" target="oxwn6A90s46tCGuVFcYO-14" edge="1">
          <mxGeometry width="50" height="50" relative="1" as="geometry">
            <mxPoint x="70" y="70" as="sourcePoint" />
            <mxPoint x="120" y="20" as="targetPoint" />
          </mxGeometry>
        </mxCell>
        <mxCell id="oxwn6A90s46tCGuVFcYO-27" value="Προβολή Βαθμολογιών&amp;nbsp;&lt;br&gt;&amp;amp; Αξιολογήσεων" style="edgeLabel;html=1;align=center;verticalAlign=middle;resizable=0;points=[];rotation=15;" parent="oxwn6A90s46tCGuVFcYO-15" vertex="1" connectable="0">
          <mxGeometry x="-0.3581" y="-2" relative="1" as="geometry">
            <mxPoint x="27" y="-13" as="offset" />
          </mxGeometry>
        </mxCell>
        <mxCell id="oxwn6A90s46tCGuVFcYO-16" value="Εμφάνισε" style="ellipse;shape=umlControl;whiteSpace=wrap;html=1;" parent="1" vertex="1">
          <mxGeometry x="340" y="70" width="60" height="60" as="geometry" />
        </mxCell>
        <mxCell id="oxwn6A90s46tCGuVFcYO-17" value="" style="endArrow=classic;html=1;rounded=0;exitX=1.02;exitY=0.525;exitDx=0;exitDy=0;exitPerimeter=0;entryX=-0.057;entryY=0.563;entryDx=0;entryDy=0;entryPerimeter=0;" parent="1" source="oxwn6A90s46tCGuVFcYO-14" target="oxwn6A90s46tCGuVFcYO-16" edge="1">
          <mxGeometry width="50" height="50" relative="1" as="geometry">
            <mxPoint x="690" y="440" as="sourcePoint" />
            <mxPoint x="740" y="390" as="targetPoint" />
          </mxGeometry>
        </mxCell>
        <mxCell id="oxwn6A90s46tCGuVFcYO-18" value="Βαθμολογίες&lt;br&gt;&amp;nbsp;και αξιολογήσεις" style="shape=umlBoundary;whiteSpace=wrap;html=1;" parent="1" vertex="1">
          <mxGeometry x="510" y="60" width="110" height="90" as="geometry" />
        </mxCell>
        <mxCell id="oxwn6A90s46tCGuVFcYO-19" value="" style="endArrow=classic;html=1;rounded=0;exitX=1.071;exitY=0.65;exitDx=0;exitDy=0;exitPerimeter=0;" parent="1" source="oxwn6A90s46tCGuVFcYO-16" target="oxwn6A90s46tCGuVFcYO-18" edge="1">
          <mxGeometry width="50" height="50" relative="1" as="geometry">
            <mxPoint x="690" y="440" as="sourcePoint" />
            <mxPoint x="740" y="390" as="targetPoint" />
          </mxGeometry>
        </mxCell>
        <mxCell id="oxwn6A90s46tCGuVFcYO-24" value="" style="endArrow=classic;html=1;rounded=0;exitX=0.997;exitY=0.54;exitDx=0;exitDy=0;exitPerimeter=0;" parent="1" source="oxwn6A90s46tCGuVFcYO-18" target="oxwn6A90s46tCGuVFcYO-26" edge="1">
          <mxGeometry width="50" height="50" relative="1" as="geometry">
            <mxPoint x="759" y="106.03999999999996" as="sourcePoint" />
            <mxPoint x="900" y="91" as="targetPoint" />
          </mxGeometry>
        </mxCell>
        <mxCell id="oxwn6A90s46tCGuVFcYO-25" value="&amp;nbsp;Επιλογή Βαθμολογίας&amp;nbsp;" style="edgeLabel;html=1;align=center;verticalAlign=middle;resizable=0;points=[];" parent="oxwn6A90s46tCGuVFcYO-24" vertex="1" connectable="0">
          <mxGeometry x="0.2766" relative="1" as="geometry">
            <mxPoint x="-59" y="-11" as="offset" />
          </mxGeometry>
        </mxCell>
        <mxCell id="oxwn6A90s46tCGuVFcYO-26" value="Εμφάνισε" style="ellipse;shape=umlControl;whiteSpace=wrap;html=1;" parent="1" vertex="1">
          <mxGeometry x="890" y="70" width="60" height="70" as="geometry" />
        </mxCell>
        <mxCell id="oxwn6A90s46tCGuVFcYO-28" value="Γραπτό Μαθητή &amp;amp; διορθώσεις Καθηγητή" style="shape=umlBoundary;whiteSpace=wrap;html=1;" parent="1" vertex="1">
          <mxGeometry x="990" y="70" width="100" height="80" as="geometry" />
        </mxCell>
        <mxCell id="oxwn6A90s46tCGuVFcYO-29" value="" style="endArrow=classic;html=1;rounded=0;exitX=1.017;exitY=0.557;exitDx=0;exitDy=0;exitPerimeter=0;entryX=0.03;entryY=0.475;entryDx=0;entryDy=0;entryPerimeter=0;" parent="1" source="oxwn6A90s46tCGuVFcYO-26" target="oxwn6A90s46tCGuVFcYO-28" edge="1">
          <mxGeometry width="50" height="50" relative="1" as="geometry">
            <mxPoint x="690" y="340" as="sourcePoint" />
            <mxPoint x="740" y="290" as="targetPoint" />
          </mxGeometry>
        </mxCell>
        <mxCell id="oxwn6A90s46tCGuVFcYO-31" value="Εμφάνισε" style="ellipse;shape=umlControl;whiteSpace=wrap;html=1;" parent="1" vertex="1">
          <mxGeometry x="1005" y="210" width="85" height="90" as="geometry" />
        </mxCell>
        <mxCell id="oxwn6A90s46tCGuVFcYO-32" value="" style="endArrow=classic;html=1;rounded=0;exitX=0.54;exitY=1.013;exitDx=0;exitDy=0;exitPerimeter=0;entryX=0.482;entryY=0.1;entryDx=0;entryDy=0;entryPerimeter=0;" parent="1" source="oxwn6A90s46tCGuVFcYO-28" target="oxwn6A90s46tCGuVFcYO-31" edge="1">
          <mxGeometry width="50" height="50" relative="1" as="geometry">
            <mxPoint x="690" y="310" as="sourcePoint" />
            <mxPoint x="740" y="260" as="targetPoint" />
          </mxGeometry>
        </mxCell>
        <mxCell id="oxwn6A90s46tCGuVFcYO-33" value="" style="endArrow=classic;html=1;rounded=0;exitX=0.012;exitY=0.522;exitDx=0;exitDy=0;exitPerimeter=0;entryX=1.03;entryY=0.5;entryDx=0;entryDy=0;entryPerimeter=0;" parent="1" source="oxwn6A90s46tCGuVFcYO-31" target="oxwn6A90s46tCGuVFcYO-35" edge="1">
          <mxGeometry width="50" height="50" relative="1" as="geometry">
            <mxPoint x="780" y="350" as="sourcePoint" />
            <mxPoint x="830" y="300" as="targetPoint" />
          </mxGeometry>
        </mxCell>
        <mxCell id="oxwn6A90s46tCGuVFcYO-34" value="Ολοκλήρωση&lt;br&gt;προεπισκόπησης&lt;br&gt;Αξιολόγησης" style="edgeLabel;html=1;align=center;verticalAlign=middle;resizable=0;points=[];rotation=0;" parent="oxwn6A90s46tCGuVFcYO-33" vertex="1" connectable="0">
          <mxGeometry x="0.2299" y="-2" relative="1" as="geometry">
            <mxPoint x="34" y="-84" as="offset" />
          </mxGeometry>
        </mxCell>
        <mxCell id="oxwn6A90s46tCGuVFcYO-35" value="Ολοκλήρωση Προεπισκόπησης" style="shape=umlBoundary;whiteSpace=wrap;html=1;" parent="1" vertex="1">
          <mxGeometry x="800" y="205" width="120" height="100" as="geometry" />
        </mxCell>
        <mxCell id="oxwn6A90s46tCGuVFcYO-36" value="Μήνυμα Συνέχισης Προβολής Βαθμολογιών" style="ellipse;shape=umlControl;whiteSpace=wrap;html=1;" parent="1" vertex="1">
          <mxGeometry x="650" y="200" width="90" height="100" as="geometry" />
        </mxCell>
        <mxCell id="oxwn6A90s46tCGuVFcYO-37" value="" style="endArrow=classic;html=1;rounded=0;exitX=0.017;exitY=0.51;exitDx=0;exitDy=0;exitPerimeter=0;entryX=1;entryY=0.58;entryDx=0;entryDy=0;entryPerimeter=0;" parent="1" source="oxwn6A90s46tCGuVFcYO-35" target="oxwn6A90s46tCGuVFcYO-36" edge="1">
          <mxGeometry width="50" height="50" relative="1" as="geometry">
            <mxPoint x="690" y="290" as="sourcePoint" />
            <mxPoint x="740" y="240" as="targetPoint" />
          </mxGeometry>
        </mxCell>
        <mxCell id="oxwn6A90s46tCGuVFcYO-38" value="Μήνυμα Επιτυχίας Προβολής" style="ellipse;shape=umlControl;whiteSpace=wrap;html=1;" parent="1" vertex="1">
          <mxGeometry x="510" y="240" width="70" height="80" as="geometry" />
        </mxCell>
        <mxCell id="oxwn6A90s46tCGuVFcYO-39" value="" style="endArrow=classic;html=1;rounded=0;exitX=0.011;exitY=0.76;exitDx=0;exitDy=0;exitPerimeter=0;entryX=0.986;entryY=0.438;entryDx=0;entryDy=0;entryPerimeter=0;" parent="1" source="oxwn6A90s46tCGuVFcYO-36" target="oxwn6A90s46tCGuVFcYO-38" edge="1">
          <mxGeometry width="50" height="50" relative="1" as="geometry">
            <mxPoint x="490" y="430" as="sourcePoint" />
            <mxPoint x="540" y="380" as="targetPoint" />
          </mxGeometry>
        </mxCell>
        <mxCell id="oxwn6A90s46tCGuVFcYO-40" value="Όχι" style="edgeLabel;html=1;align=center;verticalAlign=middle;resizable=0;points=[];" parent="oxwn6A90s46tCGuVFcYO-39" vertex="1" connectable="0">
          <mxGeometry x="0.5342" y="3" relative="1" as="geometry">
            <mxPoint x="24" y="-8" as="offset" />
          </mxGeometry>
        </mxCell>
        <mxCell id="oxwn6A90s46tCGuVFcYO-41" value="" style="endArrow=classic;html=1;rounded=0;exitX=0.443;exitY=0.127;exitDx=0;exitDy=0;exitPerimeter=0;entryX=0.851;entryY=0.919;entryDx=0;entryDy=0;entryPerimeter=0;" parent="1" source="oxwn6A90s46tCGuVFcYO-36" target="oxwn6A90s46tCGuVFcYO-18" edge="1">
          <mxGeometry width="50" height="50" relative="1" as="geometry">
            <mxPoint x="600" y="220" as="sourcePoint" />
            <mxPoint x="714" y="145" as="targetPoint" />
          </mxGeometry>
        </mxCell>
        <mxCell id="oxwn6A90s46tCGuVFcYO-42" value="Ναι" style="edgeLabel;html=1;align=center;verticalAlign=middle;resizable=0;points=[];" parent="oxwn6A90s46tCGuVFcYO-41" vertex="1" connectable="0">
          <mxGeometry x="0.3696" y="-3" relative="1" as="geometry">
            <mxPoint x="-6" y="14" as="offset" />
          </mxGeometry>
        </mxCell>
        <mxCell id="oxwn6A90s46tCGuVFcYO-43" value="" style="curved=1;endArrow=classic;html=1;rounded=0;exitX=1.03;exitY=0.525;exitDx=0;exitDy=0;exitPerimeter=0;fillColor=#f8cecc;strokeColor=#b85450;entryX=0.992;entryY=0.45;entryDx=0;entryDy=0;entryPerimeter=0;" parent="1" source="oxwn6A90s46tCGuVFcYO-28" target="oxwn6A90s46tCGuVFcYO-47" edge="1">
          <mxGeometry width="50" height="50" relative="1" as="geometry">
            <mxPoint x="1030" y="400" as="sourcePoint" />
            <mxPoint x="1010" y="380" as="targetPoint" />
            <Array as="points">
              <mxPoint x="1150" y="230" />
              <mxPoint x="1150" y="370" />
              <mxPoint x="1070" y="380" />
            </Array>
          </mxGeometry>
        </mxCell>
        <mxCell id="oxwn6A90s46tCGuVFcYO-46" value="&lt;font color=&quot;#990000&quot; style=&quot;background-color: rgb(255, 204, 204);&quot;&gt;Διαφωνία με τον Βαθμό&amp;nbsp;&lt;br&gt;&amp;amp; Αξιολόγηση&lt;/font&gt;" style="edgeLabel;html=1;align=center;verticalAlign=middle;resizable=0;points=[];" parent="oxwn6A90s46tCGuVFcYO-43" vertex="1" connectable="0">
          <mxGeometry x="0.6036" y="2" relative="1" as="geometry">
            <mxPoint x="-22" y="-29" as="offset" />
          </mxGeometry>
        </mxCell>
        <mxCell id="oxwn6A90s46tCGuVFcYO-47" value="&lt;font color=&quot;#990000&quot;&gt;&amp;nbsp;Δήλωση επιθυμίας για επικοινωνία&amp;nbsp;&lt;/font&gt;" style="shape=umlBoundary;whiteSpace=wrap;html=1;fillColor=#f8cecc;strokeColor=#b85450;" parent="1" vertex="1">
          <mxGeometry x="880" y="340" width="125" height="100" as="geometry" />
        </mxCell>
        <mxCell id="oxwn6A90s46tCGuVFcYO-49" value="&lt;font color=&quot;#990000&quot;&gt;Ορισμός πιθανού ραντεβού &amp;amp; αναμονή αποδοχής&amp;nbsp;&lt;/font&gt;" style="ellipse;shape=umlControl;whiteSpace=wrap;html=1;fillColor=#f8cecc;strokeColor=#b85450;" parent="1" vertex="1">
          <mxGeometry x="730" y="330" width="110" height="120" as="geometry" />
        </mxCell>
        <mxCell id="oxwn6A90s46tCGuVFcYO-50" value="" style="endArrow=classic;html=1;rounded=0;exitX=-0.008;exitY=0.56;exitDx=0;exitDy=0;exitPerimeter=0;entryX=1;entryY=0.558;entryDx=0;entryDy=0;entryPerimeter=0;fillColor=#f8cecc;strokeColor=#b85450;" parent="1" source="oxwn6A90s46tCGuVFcYO-47" target="oxwn6A90s46tCGuVFcYO-49" edge="1">
          <mxGeometry width="50" height="50" relative="1" as="geometry">
            <mxPoint x="640" y="570" as="sourcePoint" />
            <mxPoint x="690" y="520" as="targetPoint" />
          </mxGeometry>
        </mxCell>
        <mxCell id="oxwn6A90s46tCGuVFcYO-51" value="" style="endArrow=classic;html=1;rounded=0;exitX=-0.027;exitY=0.658;exitDx=0;exitDy=0;exitPerimeter=0;fillColor=#f8cecc;strokeColor=#b85450;entryX=1;entryY=0.625;entryDx=0;entryDy=0;entryPerimeter=0;" parent="1" source="oxwn6A90s46tCGuVFcYO-49" target="oxwn6A90s46tCGuVFcYO-52" edge="1">
          <mxGeometry width="50" height="50" relative="1" as="geometry">
            <mxPoint x="550" y="530" as="sourcePoint" />
            <mxPoint x="640" y="410" as="targetPoint" />
          </mxGeometry>
        </mxCell>
        <mxCell id="oxwn6A90s46tCGuVFcYO-53" value="&lt;font style=&quot;background-color: rgb(255, 204, 204);&quot; color=&quot;#990000&quot;&gt;Αποδοχή αιτήματος&lt;/font&gt;" style="edgeLabel;html=1;align=center;verticalAlign=middle;resizable=0;points=[];" parent="oxwn6A90s46tCGuVFcYO-51" vertex="1" connectable="0">
          <mxGeometry x="0.4496" y="4" relative="1" as="geometry">
            <mxPoint x="21" y="-24" as="offset" />
          </mxGeometry>
        </mxCell>
        <mxCell id="oxwn6A90s46tCGuVFcYO-52" value="&lt;font color=&quot;#990000&quot;&gt;Ειδοποίηση αποδοχής Αιτήματος&amp;nbsp;&lt;/font&gt;" style="ellipse;shape=umlControl;whiteSpace=wrap;html=1;fillColor=#f8cecc;strokeColor=#b85450;" parent="1" vertex="1">
          <mxGeometry x="550" y="360" width="70" height="80" as="geometry" />
        </mxCell>
        <mxCell id="oxwn6A90s46tCGuVFcYO-54" value="Parent" style="shape=umlActor;verticalLabelPosition=bottom;verticalAlign=top;html=1;" parent="1" vertex="1">
          <mxGeometry x="30" y="530" width="30" height="60" as="geometry" />
        </mxCell>
        <mxCell id="oxwn6A90s46tCGuVFcYO-56" value="" style="endArrow=classic;html=1;rounded=0;entryX=0;entryY=0.525;entryDx=0;entryDy=0;entryPerimeter=0;" parent="1" target="oxwn6A90s46tCGuVFcYO-57" edge="1">
          <mxGeometry width="50" height="50" relative="1" as="geometry">
            <mxPoint x="100" y="570" as="sourcePoint" />
            <mxPoint x="190" y="580" as="targetPoint" />
            <Array as="points">
              <mxPoint x="80" y="570" />
              <mxPoint x="100" y="570" />
            </Array>
          </mxGeometry>
        </mxCell>
        <mxCell id="oxwn6A90s46tCGuVFcYO-58" value="Παρακολούθηση&lt;br&gt;Προόδου" style="edgeLabel;html=1;align=center;verticalAlign=middle;resizable=0;points=[];" parent="oxwn6A90s46tCGuVFcYO-56" vertex="1" connectable="0">
          <mxGeometry x="0.0195" relative="1" as="geometry">
            <mxPoint x="9" y="-20" as="offset" />
          </mxGeometry>
        </mxCell>
        <mxCell id="oxwn6A90s46tCGuVFcYO-57" value="Αρχική Οθόνη&lt;br&gt;Γονέα" style="shape=umlBoundary;whiteSpace=wrap;html=1;" parent="1" vertex="1">
          <mxGeometry x="160" y="530" width="100" height="80" as="geometry" />
        </mxCell>
        <mxCell id="oxwn6A90s46tCGuVFcYO-62" value="" style="endArrow=classic;html=1;rounded=0;exitX=1.01;exitY=0.563;exitDx=0;exitDy=0;exitPerimeter=0;entryX=0;entryY=0.528;entryDx=0;entryDy=0;entryPerimeter=0;" parent="1" source="oxwn6A90s46tCGuVFcYO-57" target="oxwn6A90s46tCGuVFcYO-65" edge="1">
          <mxGeometry width="50" height="50" relative="1" as="geometry">
            <mxPoint x="300" y="510" as="sourcePoint" />
            <mxPoint x="297" y="571.98" as="targetPoint" />
          </mxGeometry>
        </mxCell>
        <mxCell id="oxwn6A90s46tCGuVFcYO-65" value="Εμφάνισε" style="ellipse;shape=umlControl;whiteSpace=wrap;html=1;" parent="1" vertex="1">
          <mxGeometry x="485" y="535" width="60" height="70" as="geometry" />
        </mxCell>
        <mxCell id="oxwn6A90s46tCGuVFcYO-67" value="Λίστα με Μαθήματα που παρακολουθεί ο Μαθητής" style="shape=umlBoundary;whiteSpace=wrap;html=1;" parent="1" vertex="1">
          <mxGeometry x="650" y="530" width="110" height="90" as="geometry" />
        </mxCell>
        <mxCell id="oxwn6A90s46tCGuVFcYO-68" value="" style="endArrow=classic;html=1;rounded=0;exitX=1;exitY=0.643;exitDx=0;exitDy=0;exitPerimeter=0;entryX=-0.009;entryY=0.489;entryDx=0;entryDy=0;entryPerimeter=0;" parent="1" source="oxwn6A90s46tCGuVFcYO-65" target="oxwn6A90s46tCGuVFcYO-67" edge="1">
          <mxGeometry width="50" height="50" relative="1" as="geometry">
            <mxPoint x="600" y="510" as="sourcePoint" />
            <mxPoint x="650" y="460" as="targetPoint" />
          </mxGeometry>
        </mxCell>
        <mxCell id="oxwn6A90s46tCGuVFcYO-69" value="Υπάρχουν Στατιστικά&lt;br&gt;?" style="ellipse;shape=umlControl;whiteSpace=wrap;html=1;" parent="1" vertex="1">
          <mxGeometry x="870" y="535" width="70" height="80" as="geometry" />
        </mxCell>
        <mxCell id="oxwn6A90s46tCGuVFcYO-70" value="" style="endArrow=classic;html=1;rounded=0;exitX=1.018;exitY=0.511;exitDx=0;exitDy=0;exitPerimeter=0;entryX=0;entryY=0.513;entryDx=0;entryDy=0;entryPerimeter=0;" parent="1" source="oxwn6A90s46tCGuVFcYO-67" target="oxwn6A90s46tCGuVFcYO-69" edge="1">
          <mxGeometry width="50" height="50" relative="1" as="geometry">
            <mxPoint x="700" y="510" as="sourcePoint" />
            <mxPoint x="750" y="460" as="targetPoint" />
          </mxGeometry>
        </mxCell>
        <mxCell id="oxwn6A90s46tCGuVFcYO-71" value="Επιλογή Μαθήματος" style="edgeLabel;html=1;align=center;verticalAlign=middle;resizable=0;points=[];" parent="oxwn6A90s46tCGuVFcYO-70" vertex="1" connectable="0">
          <mxGeometry x="-0.3748" y="2" relative="1" as="geometry">
            <mxPoint x="18" y="-14" as="offset" />
          </mxGeometry>
        </mxCell>
        <mxCell id="oxwn6A90s46tCGuVFcYO-72" value="Στατιστικά Μαθήματος" style="shape=umlBoundary;whiteSpace=wrap;html=1;" parent="1" vertex="1">
          <mxGeometry x="1020" y="550" width="100" height="80" as="geometry" />
        </mxCell>
        <mxCell id="oxwn6A90s46tCGuVFcYO-73" value="" style="endArrow=classic;html=1;rounded=0;exitX=1;exitY=0.663;exitDx=0;exitDy=0;exitPerimeter=0;entryX=-0.01;entryY=0.45;entryDx=0;entryDy=0;entryPerimeter=0;" parent="1" source="oxwn6A90s46tCGuVFcYO-69" target="oxwn6A90s46tCGuVFcYO-72" edge="1">
          <mxGeometry width="50" height="50" relative="1" as="geometry">
            <mxPoint x="680" y="330" as="sourcePoint" />
            <mxPoint x="730" y="280" as="targetPoint" />
          </mxGeometry>
        </mxCell>
        <mxCell id="oxwn6A90s46tCGuVFcYO-86" value="&amp;nbsp;Ναι&amp;nbsp;" style="edgeLabel;html=1;align=center;verticalAlign=middle;resizable=0;points=[];" parent="oxwn6A90s46tCGuVFcYO-73" vertex="1" connectable="0">
          <mxGeometry x="-0.3764" y="-1" relative="1" as="geometry">
            <mxPoint as="offset" />
          </mxGeometry>
        </mxCell>
        <mxCell id="oxwn6A90s46tCGuVFcYO-74" value="Εμφάνισε" style="ellipse;shape=umlControl;whiteSpace=wrap;html=1;" parent="1" vertex="1">
          <mxGeometry x="1028.75" y="670" width="82.5" height="90" as="geometry" />
        </mxCell>
        <mxCell id="oxwn6A90s46tCGuVFcYO-75" value="" style="endArrow=classic;html=1;rounded=0;exitX=0.54;exitY=0.988;exitDx=0;exitDy=0;exitPerimeter=0;entryX=0.557;entryY=0.088;entryDx=0;entryDy=0;entryPerimeter=0;" parent="1" source="oxwn6A90s46tCGuVFcYO-72" target="oxwn6A90s46tCGuVFcYO-74" edge="1">
          <mxGeometry width="50" height="50" relative="1" as="geometry">
            <mxPoint x="800" y="720" as="sourcePoint" />
            <mxPoint x="850" y="670" as="targetPoint" />
          </mxGeometry>
        </mxCell>
        <mxCell id="oxwn6A90s46tCGuVFcYO-76" value="" style="endArrow=classic;html=1;rounded=0;exitX=0;exitY=0.6;exitDx=0;exitDy=0;exitPerimeter=0;entryX=1.02;entryY=0.463;entryDx=0;entryDy=0;entryPerimeter=0;" parent="1" source="oxwn6A90s46tCGuVFcYO-74" target="oxwn6A90s46tCGuVFcYO-77" edge="1">
          <mxGeometry width="50" height="50" relative="1" as="geometry">
            <mxPoint x="850" y="690" as="sourcePoint" />
            <mxPoint x="950" y="650" as="targetPoint" />
          </mxGeometry>
        </mxCell>
        <mxCell id="oxwn6A90s46tCGuVFcYO-78" value="Ολοκλήρωση&lt;br style=&quot;border-color: var(--border-color);&quot;&gt;προεπισκόπησης&lt;br style=&quot;border-color: var(--border-color);&quot;&gt;Στατιστικών" style="edgeLabel;html=1;align=center;verticalAlign=middle;resizable=0;points=[];" parent="oxwn6A90s46tCGuVFcYO-76" vertex="1" connectable="0">
          <mxGeometry x="0.322" y="1" relative="1" as="geometry">
            <mxPoint x="74" y="-77" as="offset" />
          </mxGeometry>
        </mxCell>
        <mxCell id="oxwn6A90s46tCGuVFcYO-77" value="Ολοκλήρωση Προεπισκόπησης" style="shape=umlBoundary;whiteSpace=wrap;html=1;" parent="1" vertex="1">
          <mxGeometry x="780" y="680" width="120" height="100" as="geometry" />
        </mxCell>
        <mxCell id="oxwn6A90s46tCGuVFcYO-79" value="Μήνυμα Συνέχισης Προβολής Προόδου" style="ellipse;shape=umlControl;whiteSpace=wrap;html=1;" parent="1" vertex="1">
          <mxGeometry x="630" y="680" width="90" height="100" as="geometry" />
        </mxCell>
        <mxCell id="oxwn6A90s46tCGuVFcYO-80" value="" style="endArrow=classic;html=1;rounded=0;exitX=0;exitY=0.53;exitDx=0;exitDy=0;exitPerimeter=0;entryX=1.011;entryY=0.54;entryDx=0;entryDy=0;entryPerimeter=0;" parent="1" source="oxwn6A90s46tCGuVFcYO-77" target="oxwn6A90s46tCGuVFcYO-79" edge="1">
          <mxGeometry width="50" height="50" relative="1" as="geometry">
            <mxPoint x="880" y="450" as="sourcePoint" />
            <mxPoint x="930" y="400" as="targetPoint" />
          </mxGeometry>
        </mxCell>
        <mxCell id="oxwn6A90s46tCGuVFcYO-81" value="Μήνυμα Επιτυχίας Προβολής" style="ellipse;shape=umlControl;whiteSpace=wrap;html=1;" parent="1" vertex="1">
          <mxGeometry x="480" y="700" width="70" height="80" as="geometry" />
        </mxCell>
        <mxCell id="oxwn6A90s46tCGuVFcYO-82" value="" style="endArrow=classic;html=1;rounded=0;exitX=0;exitY=0.59;exitDx=0;exitDy=0;exitPerimeter=0;entryX=1;entryY=0.538;entryDx=0;entryDy=0;entryPerimeter=0;" parent="1" source="oxwn6A90s46tCGuVFcYO-79" target="oxwn6A90s46tCGuVFcYO-81" edge="1">
          <mxGeometry width="50" height="50" relative="1" as="geometry">
            <mxPoint x="630" y="690" as="sourcePoint" />
            <mxPoint x="680" y="640" as="targetPoint" />
          </mxGeometry>
        </mxCell>
        <mxCell id="oxwn6A90s46tCGuVFcYO-83" value="Όχι" style="edgeLabel;html=1;align=center;verticalAlign=middle;resizable=0;points=[];" parent="oxwn6A90s46tCGuVFcYO-82" vertex="1" connectable="0">
          <mxGeometry x="0.5203" y="3" relative="1" as="geometry">
            <mxPoint x="21" y="-7" as="offset" />
          </mxGeometry>
        </mxCell>
        <mxCell id="oxwn6A90s46tCGuVFcYO-84" value="" style="endArrow=classic;html=1;rounded=0;exitX=0.678;exitY=0.14;exitDx=0;exitDy=0;exitPerimeter=0;entryX=0.445;entryY=1.022;entryDx=0;entryDy=0;entryPerimeter=0;" parent="1" source="oxwn6A90s46tCGuVFcYO-79" target="oxwn6A90s46tCGuVFcYO-67" edge="1">
          <mxGeometry width="50" height="50" relative="1" as="geometry">
            <mxPoint x="710" y="680" as="sourcePoint" />
            <mxPoint x="760" y="630" as="targetPoint" />
          </mxGeometry>
        </mxCell>
        <mxCell id="oxwn6A90s46tCGuVFcYO-85" value="Ναι" style="edgeLabel;html=1;align=center;verticalAlign=middle;resizable=0;points=[];" parent="oxwn6A90s46tCGuVFcYO-84" vertex="1" connectable="0">
          <mxGeometry x="0.3899" relative="1" as="geometry">
            <mxPoint x="-1" y="16" as="offset" />
          </mxGeometry>
        </mxCell>
        <mxCell id="oxwn6A90s46tCGuVFcYO-87" value="" style="endArrow=classic;html=1;rounded=0;exitX=0.457;exitY=0.163;exitDx=0;exitDy=0;exitPerimeter=0;fillColor=#f8cecc;strokeColor=#b85450;entryX=0;entryY=0.5;entryDx=0;entryDy=0;entryPerimeter=0;" parent="1" source="oxwn6A90s46tCGuVFcYO-69" target="oxwn6A90s46tCGuVFcYO-90" edge="1">
          <mxGeometry width="50" height="50" relative="1" as="geometry">
            <mxPoint x="1000" y="520" as="sourcePoint" />
            <mxPoint x="1090" y="490" as="targetPoint" />
            <Array as="points">
              <mxPoint x="902" y="500" />
              <mxPoint x="1160" y="500" />
            </Array>
          </mxGeometry>
        </mxCell>
        <mxCell id="oxwn6A90s46tCGuVFcYO-89" value="&lt;font style=&quot;background-color: rgb(255, 204, 204);&quot; color=&quot;#990000&quot;&gt;&amp;nbsp;Όχι&amp;nbsp;&lt;/font&gt;" style="edgeLabel;html=1;align=center;verticalAlign=middle;resizable=0;points=[];" parent="oxwn6A90s46tCGuVFcYO-87" vertex="1" connectable="0">
          <mxGeometry x="0.0815" y="-1" relative="1" as="geometry">
            <mxPoint x="-28" y="9" as="offset" />
          </mxGeometry>
        </mxCell>
        <mxCell id="oxwn6A90s46tCGuVFcYO-90" value="&lt;font color=&quot;#990000&quot;&gt;Εμφάνιση μηνύματος σχετικά με την ανυπαρξία Στατιστικών για το συγκεκριμένο μάθημα&lt;/font&gt;" style="ellipse;shape=umlControl;whiteSpace=wrap;html=1;fillColor=#f8cecc;strokeColor=#b85450;" parent="1" vertex="1">
          <mxGeometry x="1168" y="530" width="140" height="120" as="geometry" />
        </mxCell>
        <mxCell id="oxwn6A90s46tCGuVFcYO-91" value="&lt;font color=&quot;#990000&quot;&gt;Μήνυμα Συνέχισης Προβολής Βαθμολογιών&lt;/font&gt;" style="ellipse;shape=umlControl;whiteSpace=wrap;html=1;fillColor=#f8cecc;strokeColor=#b85450;" parent="1" vertex="1">
          <mxGeometry x="1308" y="435" width="90" height="100" as="geometry" />
        </mxCell>
        <mxCell id="oxwn6A90s46tCGuVFcYO-92" value="" style="endArrow=classic;html=1;rounded=0;exitX=0.991;exitY=0.583;exitDx=0;exitDy=0;exitPerimeter=0;entryX=0.511;entryY=1.04;entryDx=0;entryDy=0;entryPerimeter=0;fillColor=#f8cecc;strokeColor=#b85450;" parent="1" source="oxwn6A90s46tCGuVFcYO-90" target="oxwn6A90s46tCGuVFcYO-91" edge="1">
          <mxGeometry width="50" height="50" relative="1" as="geometry">
            <mxPoint x="1250" y="430" as="sourcePoint" />
            <mxPoint x="1300" y="380" as="targetPoint" />
            <Array as="points">
              <mxPoint x="1360" y="600" />
            </Array>
          </mxGeometry>
        </mxCell>
        <mxCell id="oxwn6A90s46tCGuVFcYO-93" value="" style="endArrow=classic;html=1;rounded=0;exitX=-0.011;exitY=0.57;exitDx=0;exitDy=0;exitPerimeter=0;entryX=0.6;entryY=-0.044;entryDx=0;entryDy=0;entryPerimeter=0;fillColor=#f8cecc;strokeColor=#b85450;" parent="1" source="oxwn6A90s46tCGuVFcYO-91" target="oxwn6A90s46tCGuVFcYO-67" edge="1">
          <mxGeometry width="50" height="50" relative="1" as="geometry">
            <mxPoint x="1210" y="425" as="sourcePoint" />
            <mxPoint x="710" y="490" as="targetPoint" />
            <Array as="points">
              <mxPoint x="1160" y="470" />
              <mxPoint x="990" y="470" />
              <mxPoint x="716" y="485" />
            </Array>
          </mxGeometry>
        </mxCell>
        <mxCell id="oxwn6A90s46tCGuVFcYO-94" value="&amp;nbsp;Ναι&amp;nbsp;" style="edgeLabel;html=1;align=center;verticalAlign=middle;resizable=0;points=[];fontColor=#990000;labelBackgroundColor=#FFCCCC;" parent="oxwn6A90s46tCGuVFcYO-93" vertex="1" connectable="0">
          <mxGeometry x="-0.1959" y="1" relative="1" as="geometry">
            <mxPoint x="37" y="-7" as="offset" />
          </mxGeometry>
        </mxCell>
        <mxCell id="oxwn6A90s46tCGuVFcYO-95" value="&lt;font color=&quot;#990000&quot;&gt;Μήνυμα Ανεπιτυχούς Προβολής&lt;/font&gt;" style="ellipse;shape=umlControl;whiteSpace=wrap;html=1;fillColor=#f8cecc;strokeColor=#b85450;" parent="1" vertex="1">
          <mxGeometry x="1318" y="330" width="70" height="80" as="geometry" />
        </mxCell>
        <mxCell id="oxwn6A90s46tCGuVFcYO-96" value="" style="endArrow=classic;html=1;rounded=0;exitX=0.511;exitY=0.05;exitDx=0;exitDy=0;exitPerimeter=0;entryX=0.529;entryY=1.05;entryDx=0;entryDy=0;entryPerimeter=0;fillColor=#f8cecc;strokeColor=#b85450;" parent="1" source="oxwn6A90s46tCGuVFcYO-91" target="oxwn6A90s46tCGuVFcYO-95" edge="1">
          <mxGeometry width="50" height="50" relative="1" as="geometry">
            <mxPoint x="1250" y="380" as="sourcePoint" />
            <mxPoint x="1300" y="330" as="targetPoint" />
          </mxGeometry>
        </mxCell>
        <mxCell id="oxwn6A90s46tCGuVFcYO-97" value="Parent" style="shape=umlActor;verticalLabelPosition=bottom;verticalAlign=top;html=1;" parent="1" vertex="1">
          <mxGeometry x="20" y="980" width="30" height="60" as="geometry" />
        </mxCell>
        <mxCell id="oxwn6A90s46tCGuVFcYO-98" value="" style="endArrow=classic;html=1;rounded=0;entryX=0.02;entryY=0.513;entryDx=0;entryDy=0;entryPerimeter=0;" parent="1" target="oxwn6A90s46tCGuVFcYO-99" edge="1">
          <mxGeometry width="50" height="50" relative="1" as="geometry">
            <mxPoint x="60" y="1010" as="sourcePoint" />
            <mxPoint x="170" y="1010" as="targetPoint" />
          </mxGeometry>
        </mxCell>
        <mxCell id="oxwn6A90s46tCGuVFcYO-102" value="Προβολή&lt;br/&gt;ανακοινώσεων&lt;br&gt;σχολείου και συμπλήρωση&lt;br&gt;φόρμας εκδρομής" style="edgeLabel;html=1;align=center;verticalAlign=middle;resizable=0;points=[];" parent="oxwn6A90s46tCGuVFcYO-98" vertex="1" connectable="0">
          <mxGeometry x="-0.3422" y="2" relative="1" as="geometry">
            <mxPoint x="13" y="-28" as="offset" />
          </mxGeometry>
        </mxCell>
        <mxCell id="oxwn6A90s46tCGuVFcYO-99" value="Αρχική Οθόνη&lt;br&gt;Γονέα" style="shape=umlBoundary;whiteSpace=wrap;html=1;" parent="1" vertex="1">
          <mxGeometry x="170" y="970" width="100" height="80" as="geometry" />
        </mxCell>
        <mxCell id="oxwn6A90s46tCGuVFcYO-101" value="" style="endArrow=classic;html=1;rounded=0;exitX=1.02;exitY=0.438;exitDx=0;exitDy=0;exitPerimeter=0;entryX=-0.02;entryY=0.509;entryDx=0;entryDy=0;entryPerimeter=0;" parent="1" source="oxwn6A90s46tCGuVFcYO-99" target="oxwn6A90s46tCGuVFcYO-105" edge="1">
          <mxGeometry width="50" height="50" relative="1" as="geometry">
            <mxPoint x="235" y="930" as="sourcePoint" />
            <mxPoint x="298.98" y="1001.02" as="targetPoint" />
          </mxGeometry>
        </mxCell>
        <mxCell id="oxwn6A90s46tCGuVFcYO-105" value="Εμφάνισε" style="ellipse;shape=umlControl;whiteSpace=wrap;html=1;" parent="1" vertex="1">
          <mxGeometry x="425" y="970" width="60" height="70" as="geometry" />
        </mxCell>
        <mxCell id="oxwn6A90s46tCGuVFcYO-107" value="Λίστα Ανακοινώσεων" style="shape=umlBoundary;whiteSpace=wrap;html=1;" parent="1" vertex="1">
          <mxGeometry x="610" y="965" width="110" height="90" as="geometry" />
        </mxCell>
        <mxCell id="oxwn6A90s46tCGuVFcYO-108" value="" style="endArrow=classic;html=1;rounded=0;exitX=0.983;exitY=0.543;exitDx=0;exitDy=0;exitPerimeter=0;entryX=0;entryY=0.478;entryDx=0;entryDy=0;entryPerimeter=0;" parent="1" source="oxwn6A90s46tCGuVFcYO-105" target="oxwn6A90s46tCGuVFcYO-107" edge="1">
          <mxGeometry width="50" height="50" relative="1" as="geometry">
            <mxPoint x="540" y="940" as="sourcePoint" />
            <mxPoint x="590" y="890" as="targetPoint" />
          </mxGeometry>
        </mxCell>
        <mxCell id="oxwn6A90s46tCGuVFcYO-109" value="Εμφάνισε" style="ellipse;shape=umlControl;whiteSpace=wrap;html=1;" parent="1" vertex="1">
          <mxGeometry x="810" y="970" width="70" height="80" as="geometry" />
        </mxCell>
        <mxCell id="oxwn6A90s46tCGuVFcYO-110" value="" style="endArrow=classic;html=1;rounded=0;exitX=1.009;exitY=0.533;exitDx=0;exitDy=0;exitPerimeter=0;entryX=0.014;entryY=0.575;entryDx=0;entryDy=0;entryPerimeter=0;" parent="1" source="oxwn6A90s46tCGuVFcYO-107" target="oxwn6A90s46tCGuVFcYO-109" edge="1">
          <mxGeometry width="50" height="50" relative="1" as="geometry">
            <mxPoint x="750" y="940" as="sourcePoint" />
            <mxPoint x="800" y="890" as="targetPoint" />
          </mxGeometry>
        </mxCell>
        <mxCell id="oxwn6A90s46tCGuVFcYO-111" value="Επιλογή&lt;br&gt;Ανακοίνωσης" style="edgeLabel;html=1;align=center;verticalAlign=middle;resizable=0;points=[];" parent="oxwn6A90s46tCGuVFcYO-110" vertex="1" connectable="0">
          <mxGeometry x="0.3846" y="2" relative="1" as="geometry">
            <mxPoint x="-22" y="-15" as="offset" />
          </mxGeometry>
        </mxCell>
        <mxCell id="oxwn6A90s46tCGuVFcYO-112" value="Ανακοίνωση Εκδρομής &amp;amp; Φόρμα Εκδρομής" style="shape=umlBoundary;whiteSpace=wrap;html=1;" parent="1" vertex="1">
          <mxGeometry x="910" y="965" width="110" height="90" as="geometry" />
        </mxCell>
        <mxCell id="oxwn6A90s46tCGuVFcYO-113" value="" style="endArrow=classic;html=1;rounded=0;exitX=1;exitY=0.513;exitDx=0;exitDy=0;exitPerimeter=0;entryX=-0.02;entryY=0.538;entryDx=0;entryDy=0;entryPerimeter=0;" parent="1" source="oxwn6A90s46tCGuVFcYO-109" target="oxwn6A90s46tCGuVFcYO-112" edge="1">
          <mxGeometry width="50" height="50" relative="1" as="geometry">
            <mxPoint x="880" y="930" as="sourcePoint" />
            <mxPoint x="930" y="880" as="targetPoint" />
          </mxGeometry>
        </mxCell>
        <mxCell id="oxwn6A90s46tCGuVFcYO-114" value="Επιθυμεί να συμμετέχει ο Μαθητής στην Εκδρομή&lt;br&gt;?" style="ellipse;shape=umlControl;whiteSpace=wrap;html=1;" parent="1" vertex="1">
          <mxGeometry x="1090" y="940" width="110" height="120" as="geometry" />
        </mxCell>
        <mxCell id="oxwn6A90s46tCGuVFcYO-115" value="" style="endArrow=classic;html=1;rounded=0;exitX=0.991;exitY=0.444;exitDx=0;exitDy=0;exitPerimeter=0;entryX=0;entryY=0.541;entryDx=0;entryDy=0;entryPerimeter=0;" parent="1" source="oxwn6A90s46tCGuVFcYO-112" target="oxwn6A90s46tCGuVFcYO-114" edge="1">
          <mxGeometry width="50" height="50" relative="1" as="geometry">
            <mxPoint x="920" y="910" as="sourcePoint" />
            <mxPoint x="970" y="860" as="targetPoint" />
          </mxGeometry>
        </mxCell>
        <mxCell id="oxwn6A90s46tCGuVFcYO-116" value="" style="endArrow=classic;html=1;rounded=0;exitX=0.482;exitY=1.008;exitDx=0;exitDy=0;exitPerimeter=0;entryX=0.57;entryY=0;entryDx=0;entryDy=0;entryPerimeter=0;" parent="1" source="oxwn6A90s46tCGuVFcYO-114" edge="1">
          <mxGeometry width="50" height="50" relative="1" as="geometry">
            <mxPoint x="1120" y="1070" as="sourcePoint" />
            <mxPoint x="903.56" y="1150" as="targetPoint" />
            <Array as="points">
              <mxPoint x="1123" y="1090" />
              <mxPoint x="910" y="1090" />
            </Array>
          </mxGeometry>
        </mxCell>
        <mxCell id="oxwn6A90s46tCGuVFcYO-118" value="&amp;nbsp;Ναι&amp;nbsp;" style="edgeLabel;html=1;align=center;verticalAlign=middle;resizable=0;points=[];" parent="oxwn6A90s46tCGuVFcYO-116" vertex="1" connectable="0">
          <mxGeometry x="-0.2412" y="-1" relative="1" as="geometry">
            <mxPoint as="offset" />
          </mxGeometry>
        </mxCell>
        <mxCell id="oxwn6A90s46tCGuVFcYO-119" value="" style="endArrow=classic;html=1;rounded=0;exitX=1.009;exitY=0.517;exitDx=0;exitDy=0;exitPerimeter=0;fillColor=#f8cecc;strokeColor=#b85450;entryX=0.021;entryY=0.55;entryDx=0;entryDy=0;entryPerimeter=0;" parent="1" source="oxwn6A90s46tCGuVFcYO-114" target="oxwn6A90s46tCGuVFcYO-131" edge="1">
          <mxGeometry width="50" height="50" relative="1" as="geometry">
            <mxPoint x="1190" y="1010" as="sourcePoint" />
            <mxPoint x="1260" y="1000" as="targetPoint" />
          </mxGeometry>
        </mxCell>
        <mxCell id="oxwn6A90s46tCGuVFcYO-120" value="&amp;nbsp;Όχι&amp;nbsp;" style="edgeLabel;html=1;align=center;verticalAlign=middle;resizable=0;points=[];fontColor=#990000;" parent="oxwn6A90s46tCGuVFcYO-119" vertex="1" connectable="0">
          <mxGeometry x="0.2638" y="-3" relative="1" as="geometry">
            <mxPoint as="offset" />
          </mxGeometry>
        </mxCell>
        <mxCell id="Vo8H9PCYT5zZWA1CU-Tr-8" value="" style="edgeStyle=orthogonalEdgeStyle;rounded=0;orthogonalLoop=1;jettySize=auto;html=1;" edge="1" parent="1" source="oxwn6A90s46tCGuVFcYO-124" target="oxwn6A90s46tCGuVFcYO-107">
          <mxGeometry relative="1" as="geometry" />
        </mxCell>
        <mxCell id="oxwn6A90s46tCGuVFcYO-124" value="Μήνυμα Συνέχισης Προβολής Ανακοινώσεων" style="ellipse;shape=umlControl;whiteSpace=wrap;html=1;" parent="1" vertex="1">
          <mxGeometry x="525" y="1140" width="95" height="100" as="geometry" />
        </mxCell>
        <mxCell id="oxwn6A90s46tCGuVFcYO-125" value="" style="endArrow=classic;html=1;rounded=0;exitX=0.033;exitY=0.617;exitDx=0;exitDy=0;exitPerimeter=0;" parent="1" source="Vo8H9PCYT5zZWA1CU-Tr-4" target="Vo8H9PCYT5zZWA1CU-Tr-6" edge="1">
          <mxGeometry width="50" height="50" relative="1" as="geometry">
            <mxPoint x="842.0000000000002" y="1196.98" as="sourcePoint" />
            <mxPoint x="850" y="1070" as="targetPoint" />
          </mxGeometry>
        </mxCell>
        <mxCell id="oxwn6A90s46tCGuVFcYO-126" value="Μήνυμα Επιτυχίας Προβολής" style="ellipse;shape=umlControl;whiteSpace=wrap;html=1;" parent="1" vertex="1">
          <mxGeometry x="355" y="1160" width="70" height="80" as="geometry" />
        </mxCell>
        <mxCell id="oxwn6A90s46tCGuVFcYO-127" value="" style="endArrow=classic;html=1;rounded=0;exitX=0.032;exitY=0.68;exitDx=0;exitDy=0;exitPerimeter=0;entryX=1.043;entryY=0.563;entryDx=0;entryDy=0;entryPerimeter=0;" parent="1" source="oxwn6A90s46tCGuVFcYO-124" target="oxwn6A90s46tCGuVFcYO-126" edge="1">
          <mxGeometry width="50" height="50" relative="1" as="geometry">
            <mxPoint x="630" y="1160" as="sourcePoint" />
            <mxPoint x="680" y="1110" as="targetPoint" />
          </mxGeometry>
        </mxCell>
        <mxCell id="oxwn6A90s46tCGuVFcYO-128" value="&amp;nbsp;Όχι&amp;nbsp;" style="edgeLabel;html=1;align=center;verticalAlign=middle;resizable=0;points=[];" parent="oxwn6A90s46tCGuVFcYO-127" vertex="1" connectable="0">
          <mxGeometry x="-0.3458" y="-1" relative="1" as="geometry">
            <mxPoint as="offset" />
          </mxGeometry>
        </mxCell>
        <mxCell id="oxwn6A90s46tCGuVFcYO-131" value="&lt;font color=&quot;#990000&quot;&gt;Μήνυμα Συνέχισης Προβολής Ανακοινώσεων&lt;/font&gt;" style="ellipse;shape=umlControl;whiteSpace=wrap;html=1;strokeColor=#b85450;fillColor=#f8cecc;" parent="1" vertex="1">
          <mxGeometry x="1270" y="945" width="95" height="100" as="geometry" />
        </mxCell>
        <mxCell id="oxwn6A90s46tCGuVFcYO-132" value="&lt;font color=&quot;#990000&quot;&gt;Μήνυμα Επιτυχίας Προβολής&lt;/font&gt;" style="ellipse;shape=umlControl;whiteSpace=wrap;html=1;fillColor=#f8cecc;strokeColor=#b85450;" parent="1" vertex="1">
          <mxGeometry x="1282.5" y="1110" width="70" height="80" as="geometry" />
        </mxCell>
        <mxCell id="oxwn6A90s46tCGuVFcYO-133" value="" style="endArrow=classic;html=1;rounded=0;exitX=0.526;exitY=1.01;exitDx=0;exitDy=0;exitPerimeter=0;entryX=0.507;entryY=0.088;entryDx=0;entryDy=0;entryPerimeter=0;fillColor=#f8cecc;strokeColor=#b85450;" parent="1" source="oxwn6A90s46tCGuVFcYO-131" target="oxwn6A90s46tCGuVFcYO-132" edge="1">
          <mxGeometry width="50" height="50" relative="1" as="geometry">
            <mxPoint x="1280" y="1110" as="sourcePoint" />
            <mxPoint x="1330" y="1060" as="targetPoint" />
          </mxGeometry>
        </mxCell>
        <mxCell id="oxwn6A90s46tCGuVFcYO-134" value="Όχι&amp;nbsp;" style="edgeLabel;html=1;align=center;verticalAlign=middle;resizable=0;points=[];fontColor=#990000;" parent="oxwn6A90s46tCGuVFcYO-133" vertex="1" connectable="0">
          <mxGeometry x="-0.4952" y="3" relative="1" as="geometry">
            <mxPoint as="offset" />
          </mxGeometry>
        </mxCell>
        <mxCell id="oxwn6A90s46tCGuVFcYO-135" value="" style="endArrow=classic;html=1;rounded=0;exitX=0.516;exitY=0.14;exitDx=0;exitDy=0;exitPerimeter=0;entryX=0.564;entryY=0.022;entryDx=0;entryDy=0;entryPerimeter=0;fillColor=#f8cecc;strokeColor=#b85450;" parent="1" source="oxwn6A90s46tCGuVFcYO-131" target="oxwn6A90s46tCGuVFcYO-107" edge="1">
          <mxGeometry width="50" height="50" relative="1" as="geometry">
            <mxPoint x="1240" y="880" as="sourcePoint" />
            <mxPoint x="680" y="890" as="targetPoint" />
            <Array as="points">
              <mxPoint x="1319" y="890" />
              <mxPoint x="672" y="890" />
            </Array>
          </mxGeometry>
        </mxCell>
        <mxCell id="oxwn6A90s46tCGuVFcYO-136" value="&amp;nbsp;Ναι&amp;nbsp;" style="edgeLabel;html=1;align=center;verticalAlign=middle;resizable=0;points=[];fontColor=#990000;" parent="oxwn6A90s46tCGuVFcYO-135" vertex="1" connectable="0">
          <mxGeometry x="0.1274" y="2" relative="1" as="geometry">
            <mxPoint as="offset" />
          </mxGeometry>
        </mxCell>
        <mxCell id="Vo8H9PCYT5zZWA1CU-Tr-1" value="Επιλέγει&amp;nbsp;&lt;br&gt;οκ" style="text;html=1;align=center;verticalAlign=middle;resizable=0;points=[];autosize=1;strokeColor=#b85450;fillColor=#f8cecc;" vertex="1" parent="1">
          <mxGeometry x="1365" y="555" width="70" height="40" as="geometry" />
        </mxCell>
        <mxCell id="Vo8H9PCYT5zZWA1CU-Tr-2" value="Όχι" style="text;html=1;align=center;verticalAlign=middle;resizable=0;points=[];autosize=1;strokeColor=#b85450;fillColor=#f8cecc;" vertex="1" parent="1">
          <mxGeometry x="1297.5" y="410" width="40" height="30" as="geometry" />
        </mxCell>
        <mxCell id="Vo8H9PCYT5zZWA1CU-Tr-3" value="Συμπλήρωση&lt;br&gt;φόρμας&amp;nbsp;" style="text;html=1;align=center;verticalAlign=middle;resizable=0;points=[];autosize=1;strokeColor=none;fillColor=none;" vertex="1" parent="1">
          <mxGeometry x="997.5" y="960" width="100" height="40" as="geometry" />
        </mxCell>
        <mxCell id="Vo8H9PCYT5zZWA1CU-Tr-4" value="Υπογραφή" style="ellipse;shape=umlEntity;whiteSpace=wrap;html=1;" vertex="1" parent="1">
          <mxGeometry x="865" y="1150" width="80" height="80" as="geometry" />
        </mxCell>
        <mxCell id="Vo8H9PCYT5zZWA1CU-Tr-5" value="Επιλογή&amp;nbsp;&lt;br&gt;οριστικής&lt;br&gt;υποβολής" style="text;html=1;align=center;verticalAlign=middle;resizable=0;points=[];autosize=1;strokeColor=none;fillColor=none;" vertex="1" parent="1">
          <mxGeometry x="800" y="1200" width="80" height="60" as="geometry" />
        </mxCell>
        <mxCell id="Vo8H9PCYT5zZWA1CU-Tr-6" value="Προεπισκόπηση&lt;br&gt;οριστικής&amp;nbsp;&lt;br&gt;υποβολής" style="shape=umlBoundary;whiteSpace=wrap;html=1;" vertex="1" parent="1">
          <mxGeometry x="687" y="1160" width="123" height="80" as="geometry" />
        </mxCell>
        <mxCell id="Vo8H9PCYT5zZWA1CU-Tr-7" value="" style="endArrow=classic;html=1;rounded=0;entryX=0.999;entryY=0.569;entryDx=0;entryDy=0;entryPerimeter=0;" edge="1" parent="1" source="Vo8H9PCYT5zZWA1CU-Tr-6" target="oxwn6A90s46tCGuVFcYO-124">
          <mxGeometry width="50" height="50" relative="1" as="geometry">
            <mxPoint x="880" y="1050" as="sourcePoint" />
            <mxPoint x="930" y="1000" as="targetPoint" />
          </mxGeometry>
        </mxCell>
        <mxCell id="Vo8H9PCYT5zZWA1CU-Tr-9" value="Ναι" style="text;html=1;align=center;verticalAlign=middle;resizable=0;points=[];autosize=1;strokeColor=none;fillColor=none;" vertex="1" parent="1">
          <mxGeometry x="580" y="1060" width="40" height="30" as="geometry" />
        </mxCell>
      </root>
    </mxGraphModel>
  </diagram>
</mxfile>
